<?xml version="1.0" encoding="utf-8"?>
<!-- Generator: Adobe Illustrator 26.0.2, SVG Export Plug-In . SVG Version: 6.00 Build 0)  -->
<svg version="1.1" id="Layer_1" xmlns="http://www.w3.org/2000/svg" xmlns:xlink="http://www.w3.org/1999/xlink" x="0px" y="0px"
	 viewBox="0 0 100 100" style="enable-background:new 0 0 100 100;" xml:space="preserve">
<style type="text/css">
	.st0{fill:#0080FF;}
	.st1{fill:#4285F4;}
	.st2{fill:#34A853;}
	.st3{fill:#FBBC05;}
	.st4{fill:#EB4335;}
	.st5{fill-rule:evenodd;clip-rule:evenodd;fill:url(#SVGID_1_);}
	.st6{fill:url(#SVGID_00000088111830516221237260000002366212309841576089_);}
</style>
<g>
	<linearGradient id="SVGID_1_" gradientUnits="userSpaceOnUse" x1="50" y1="22.0994" x2="50" y2="113.6113">
		<stop  offset="0" style="stop-color:#FFCA3F"/>
		<stop  offset="0.0969" style="stop-color:#CA7C22"/>
		<stop  offset="0.1888" style="stop-color:#FDDB7A"/>
		<stop  offset="0.4201" style="stop-color:#FFAD45"/>
		<stop  offset="0.5538" style="stop-color:#A95F0D"/>
		<stop  offset="0.6562" style="stop-color:#FFAD45"/>
		<stop  offset="0.7903" style="stop-color:#FFFF9B"/>
		<stop  offset="0.868" style="stop-color:#FFED7C"/>
		<stop  offset="1" style="stop-color:#FFCA3F"/>
	</linearGradient>
	<path class="st5" d="M72.88,61.6c0,3.61-2.93,6.54-6.54,6.54H33.65c-3.61,0-6.54-2.93-6.54-6.54V38.4c0-3.61,2.93-6.54,6.54-6.54
		h32.69c3.61,0,6.54,2.93,6.54,6.54V61.6z"/>
	
		<linearGradient id="SVGID_00000117672405972423426720000010426289551629174421_" gradientUnits="userSpaceOnUse" x1="50" y1="-0.0812" x2="50" y2="114.4985">
		<stop  offset="0" style="stop-color:#FFCA3F"/>
		<stop  offset="0.0969" style="stop-color:#CA7C22"/>
		<stop  offset="0.1888" style="stop-color:#FDDB7A"/>
		<stop  offset="0.4201" style="stop-color:#FFAD45"/>
		<stop  offset="0.5538" style="stop-color:#A95F0D"/>
		<stop  offset="0.6562" style="stop-color:#FFAD45"/>
		<stop  offset="0.7903" style="stop-color:#FFFF9B"/>
		<stop  offset="0.868" style="stop-color:#FFED7C"/>
		<stop  offset="1" style="stop-color:#FFCA3F"/>
	</linearGradient>
	<path style="fill:url(#SVGID_00000117672405972423426720000010426289551629174421_);" d="M72.88,43.29v-0.84H64.5V31.86h-0.84
		v10.59h-6.79c-0.89-2.84-3.4-4.93-6.45-5.22v-5.37h-0.84v5.31c-3.31,0.06-6.08,2.26-7.02,5.28h-6.17V31.86h-0.84v10.59h-8.44v0.84
		h8.44v11.87h-8.44V56h8.44v12.14h0.84V56h5.99c0.76,3.3,3.68,5.78,7.2,5.84v6.29h0.84v-6.35c3.26-0.31,5.91-2.66,6.63-5.79h6.62
		v12.14h0.84V56h8.38v-0.84h-5V43.29H72.88z M42.27,55.16h-5.87V43.29h5.93c-0.09,0.46-0.14,0.92-0.14,1.4
		c0,1.76,0.62,3.45,1.77,4.81c-1.14,1.36-1.77,3.06-1.77,4.81C42.18,54.61,42.23,54.88,42.27,55.16z M49.71,61.02
		c-3.69,0-6.7-3-6.7-6.7c0-1.67,0.64-3.28,1.79-4.53l0.26-0.28l-0.26-0.28c-1.16-1.25-1.79-2.86-1.79-4.53c0-3.69,3-6.7,6.7-6.7
		c3.69,0,6.7,3,6.7,6.7c0,1.67-0.64,3.28-1.79,4.53l-0.26,0.28l0.26,0.28c1.16,1.25,1.79,2.86,1.79,4.53
		C56.41,58.02,53.41,61.02,49.71,61.02z M67.05,55.16h-9.89c0.03-0.28,0.09-0.55,0.09-0.84c0-1.76-0.62-3.45-1.77-4.81
		c1.14-1.36,1.77-3.06,1.77-4.81c0-0.48-0.05-0.95-0.14-1.4h9.94V55.16z"/>
</g>
</svg>
