<?xml version="1.0" encoding="utf-8"?>
<!-- Generator: Adobe Illustrator 26.0.2, SVG Export Plug-In . SVG Version: 6.00 Build 0)  -->
<svg version="1.1" id="Layer_1" xmlns="http://www.w3.org/2000/svg" xmlns:xlink="http://www.w3.org/1999/xlink" x="0px" y="0px"
	 viewBox="0 0 100 100" style="enable-background:new 0 0 100 100;" xml:space="preserve">
<style type="text/css">
	.st0{fill:#0080FF;}
	.st1{fill:#4285F4;}
	.st2{fill:#34A853;}
	.st3{fill:#FBBC05;}
	.st4{fill:#EB4335;}
	.st5{fill-rule:evenodd;clip-rule:evenodd;fill:url(#SVGID_1_);}
	.st6{fill:url(#SVGID_00000032630206212249379940000015779631246840989832_);}
</style>
<path d="M50,10c-22.09,0-40,17.91-40,40c0,22.09,17.91,40,40,40s40-17.91,40-40C90,27.91,72.09,10,50,10z M52.93,73.6
	c-1.14,0.93-2.57,1.4-4.3,1.4c-1.73,0-3.17-0.47-4.33-1.4c-1.16-0.93-1.74-2.26-1.74-3.99c0-1.77,0.58-3.14,1.74-4.09
	c1.16-0.96,2.6-1.43,4.33-1.43c1.73,0,3.16,0.48,4.3,1.43c1.14,0.95,1.71,2.32,1.71,4.09C54.64,71.34,54.07,72.67,52.93,73.6z
	 M65.52,43.62c-1.02,1.73-2.27,3.16-3.75,4.3c-1.48,1.14-2.94,2.23-4.4,3.27c-1.46,1.05-2.69,2.22-3.72,3.51
	c-1.02,1.3-1.53,2.72-1.53,4.26c0,0.73-0.55,1.25-1.64,1.57c-1.09,0.32-2.23,0.33-3.41,0.03c-1.18-0.3-1.89-0.83-2.11-1.6
	c-0.41-1.86-0.28-3.58,0.38-5.15c0.66-1.57,1.59-2.95,2.8-4.16c1.2-1.2,2.46-2.41,3.75-3.62c1.3-1.2,2.41-2.61,3.34-4.23
	c0.93-1.61,1.4-3.33,1.4-5.15c0-2.36-0.61-4.22-1.84-5.56c-1.23-1.34-2.66-2.01-4.3-2.01c-1.36,0-2.51,0.43-3.44,1.3
	c-0.93,0.86-1.66,1.91-2.18,3.14c-0.52,1.23-1.03,2.46-1.53,3.68c-0.5,1.23-1.18,2.27-2.05,3.14c-0.86,0.86-1.93,1.3-3.21,1.3
	c-1.5,0-2.73-0.43-3.68-1.3c-0.96-0.86-1.43-2.05-1.43-3.55c0-2.96,1.69-5.66,5.08-8.12c3.39-2.46,7.4-3.68,12.04-3.68
	c5,0,9.08,1.08,12.24,3.24c3.16,2.16,4.74,5.35,4.74,9.58C67.05,39.96,66.54,41.89,65.52,43.62z"/>
</svg>
