<?xml version="1.0" encoding="utf-8"?>
<!-- Generator: Adobe Illustrator 26.0.2, SVG Export Plug-In . SVG Version: 6.00 Build 0)  -->
<svg version="1.1" id="Layer_1" xmlns="http://www.w3.org/2000/svg" xmlns:xlink="http://www.w3.org/1999/xlink" x="0px" y="0px"
	 viewBox="0 0 100 100" style="enable-background:new 0 0 100 100;" xml:space="preserve">
<style type="text/css">
	.st0{fill:#0080FF;}
	.st1{fill:#4285F4;}
	.st2{fill:#34A853;}
	.st3{fill:#FBBC05;}
	.st4{fill:#EB4335;}
	.st5{fill-rule:evenodd;clip-rule:evenodd;fill:url(#SVGID_1_);}
	.st6{fill:url(#SVGID_00000072993961071634547310000007370393501543880332_);}
	.st7{fill:#9CCC65;}
	.st8{fill:#FFF59D;}
	.st9{fill:#4DB6AC;}
	.st10{fill:#D4E157;}
	.st11{fill:#0097A7;}
	.st12{fill:#F6F7F7;}
	.st13{fill:#F2EAD9;}
	.st14{fill:#413C3C;}
	.st15{clip-path:url(#SVGID_00000092432241072262872890000005318472360746992026_);}
	.st16{fill:#006696;}
	.st17{fill:#F06632;}
	.st18{fill:#F7AA39;}
	.st19{fill:#FFFFFF;}
	.st20{fill:#529443;}
</style>
<path d="M72.99,49.66c-0.08-1.11-0.53-2.17-1.28-3l-36-40h0c-0.89-0.99-2.13-1.58-3.45-1.65c-1.32-0.07-2.62,0.39-3.61,1.28
	C27.66,7.17,27.07,8.41,27,9.74c-0.07,1.32,0.39,2.62,1.28,3.61l33,36.65l-33,36.65c-0.89,0.99-1.35,2.29-1.28,3.61
	c0.07,1.32,0.66,2.57,1.65,3.45c0.99,0.89,2.29,1.35,3.61,1.28c1.32-0.07,2.57-0.66,3.45-1.65l36-40h0
	C72.62,52.34,73.08,51.01,72.99,49.66L72.99,49.66z"/>
</svg>
