<?xml version="1.0" encoding="utf-8"?>
<!-- Generator: Adobe Illustrator 26.0.2, SVG Export Plug-In . SVG Version: 6.00 Build 0)  -->
<svg version="1.1" id="Layer_1" xmlns="http://www.w3.org/2000/svg" xmlns:xlink="http://www.w3.org/1999/xlink" x="0px" y="0px"
	 viewBox="0 0 100 100" style="enable-background:new 0 0 100 100;" xml:space="preserve">
<style type="text/css">
	.st0{fill:#0080FF;}
	.st1{fill:#4285F4;}
	.st2{fill:#34A853;}
	.st3{fill:#FBBC05;}
	.st4{fill:#EB4335;}
	.st5{fill-rule:evenodd;clip-rule:evenodd;fill:url(#SVGID_1_);}
	.st6{fill:url(#SVGID_00000142887149289904566810000003417417825253064067_);}
	.st7{fill:#9CCC65;}
	.st8{fill:#FFF59D;}
	.st9{fill:#4DB6AC;}
	.st10{fill:#D4E157;}
	.st11{fill:#0097A7;}
	.st12{fill:#F6F7F7;}
	.st13{fill:#F2EAD9;}
	.st14{fill:#413C3C;}
	.st15{clip-path:url(#SVGID_00000035490980186981907390000016840300539877958549_);}
	.st16{fill:#006696;}
	.st17{fill:#F06632;}
	.st18{fill:#F7AA39;}
	.st19{fill:#FFFFFF;}
	.st20{fill:#529443;}
</style>
<g>
	<g>
		<path d="M70.86,26.15c-6.1,0-11.04-4.94-11.04-11.04c0-0.34,0.02-0.67,0.05-1H27.86c-3.31,0-6,2.69-6,6v68c0,3.31,2.69,6,6,6h38
			c3.31,0,6-2.69,6-6V26.1C71.53,26.13,71.19,26.15,70.86,26.15z"/>
	</g>
	<path d="M78.11,14.75c-0.32-3.62-3.34-6.47-6.97-6.61V6.48c0-0.46-0.51-0.74-0.9-0.5L65.26,9.1c-0.37,0.23-0.37,0.76,0,0.99
		l4.99,3.11c0.39,0.25,0.9-0.04,0.9-0.5v-1.63h0.02c2.19,0.16,3.96,1.98,4.03,4.17c0.09,2.56-2.05,4.67-4.63,4.49
		c-1.89-0.12-3.73-1.82-4-3.71c-0.07-0.48-0.05-0.94,0.02-1.38c0.04-0.23-0.05-0.48-0.27-0.6l-1.64-0.97
		c-0.32-0.19-0.72-0.04-0.83,0.32c-0.21,0.76-0.32,1.57-0.27,2.4c0.19,3.59,3.02,6.54,6.61,6.86
		C74.74,23.06,78.52,19.28,78.11,14.75L78.11,14.75z"/>
</g>
<path class="st13" d="M51.81,57c0,0.55-0.2,1.06-0.59,1.46c-0.35,0.35-0.87,0.59-1.46,0.59h-5.82c-0.55,0-1.06-0.24-1.46-0.59
	C42.14,58.1,41.9,57.59,41.9,57v-5.82c0-0.55,0.2-1.06,0.59-1.46c0.35-0.35,0.87-0.59,1.46-0.59h5.82v0c0.55,0,1.1,0.24,1.46,0.63
	c0.35,0.35,0.59,0.87,0.59,1.46L51.81,57z"/>
<g>
	<path class="st14" d="M48.85,50.84c-0.54-0.51-1.25-0.79-2-0.79c-0.75,0-1.46,0.28-2,0.79c-0.54,0.51-0.84,1.17-0.84,1.87
		c0,0.45,0.17,0.96,0.5,1.5l0,0l0,0l2.22,3.84c0.01,0.02,0.02,0.03,0.03,0.04l0,0c0.03,0.03,0.06,0.03,0.08,0.03
		c0.01,0,0.05,0,0.08-0.03c0,0,0,0,0,0c0,0,0,0,0,0c0,0,0,0,0,0l0,0c0,0,0.01-0.02,0.02-0.03l0,0l2.22-3.84l0,0l0,0
		c0.34-0.54,0.5-1.03,0.5-1.5C49.69,52.01,49.39,51.34,48.85,50.84z M46.95,58.09L46.95,58.09L46.95,58.09L46.95,58.09z"/>
	<g>
		<defs>
			<path id="SVGID_00000060022551942190542310000014425176951554530438_" d="M48.85,50.84c-0.54-0.51-1.25-0.79-2-0.79
				c-0.75,0-1.46,0.28-2,0.79c-0.54,0.51-0.84,1.17-0.84,1.87c0,0.45,0.17,0.96,0.5,1.5l0,0l0,0l2.22,3.84
				c0.01,0.02,0.02,0.03,0.03,0.04l0,0c0.03,0.03,0.06,0.03,0.08,0.03c0.01,0,0.05,0,0.08-0.03c0,0,0,0,0,0c0,0,0,0,0,0c0,0,0,0,0,0
				l0,0c0,0,0.01-0.02,0.02-0.03l0,0l2.22-3.84l0,0l0,0c0.34-0.54,0.5-1.03,0.5-1.5C49.69,52.01,49.39,51.34,48.85,50.84z
				 M46.95,58.09L46.95,58.09L46.95,58.09L46.95,58.09z"/>
		</defs>
		<clipPath id="SVGID_00000027576304832308296570000008775616033721314481_">
			<use xlink:href="#SVGID_00000060022551942190542310000014425176951554530438_"  style="overflow:visible;"/>
		</clipPath>
		<g style="clip-path:url(#SVGID_00000027576304832308296570000008775616033721314481_);">
			<rect id="XMLID_7_" x="43.1" y="50.08" class="st16" width="7.53" height="1.1"/>
			<rect id="XMLID_6_" x="43.1" y="51.43" class="st17" width="7.53" height="0.91"/>
			<rect id="XMLID_5_" x="43.1" y="52.6" class="st18" width="7.53" height="2.07"/>
			<circle id="XMLID_4_" class="st19" cx="46.87" cy="52.76" r="1.37"/>
			<path id="XMLID_3_" class="st14" d="M48.22,52.76h-0.16c0,0.33-0.13,0.64-0.35,0.85c-0.22,0.22-0.52,0.35-0.85,0.35
				c-0.33,0-0.64-0.13-0.85-0.35c-0.22-0.22-0.35-0.52-0.35-0.85c0-0.33,0.13-0.64,0.35-0.85c0.22-0.22,0.52-0.35,0.85-0.35
				c0.33,0,0.64,0.13,0.85,0.35c0.22,0.22,0.35,0.52,0.35,0.85H48.22h0.16c0-0.84-0.68-1.53-1.53-1.53c-0.84,0-1.53,0.68-1.53,1.53
				c0,0.84,0.68,1.53,1.53,1.53c0.84,0,1.53-0.68,1.53-1.53H48.22z"/>
			<path class="st20" d="M48.23,53.34L48.23,53.34c-0.06-0.06-0.14-0.09-0.22-0.09h0c-0.08,0-0.16,0.03-0.22,0.09l-0.39,0.39
				c-0.09,0.09-0.09,0.24,0,0.34l0.07,0.07c0.02,0.02,0.03,0.04,0.03,0.07c0,0.03-0.01,0.05-0.03,0.07
				c-0.02,0.02-0.04,0.03-0.07,0.03c-0.03,0-0.05-0.01-0.07-0.03l-1.35-1.35l0,0c-0.06-0.06-0.14-0.09-0.22-0.09h0
				c-0.08,0-0.16,0.03-0.22,0.09l-1.23,1.23l0.02,0.04c0.03,0.06,0.06,0.11,0.1,0.17l0,0h0l2.26,3.87c0.09,0.16,0.32,0.16,0.41,0
				l2.14-3.64c0.06-0.09,0.04-0.21-0.04-0.29L48.23,53.34z"/>
			<path id="XMLID_2_" class="st19" d="M47.74,55.17c-0.21-0.08-0.54-0.14-0.84-0.15c-0.16-0.01-0.44-0.03-0.37-0.19
				c0.07-0.15,0.47-0.26,0.71-0.31c0.07-0.01,0.11-0.05-0.01-0.03c-0.09,0.01-0.97,0.2-1.21,0.44c-0.23,0.24,0.48,0.35,0.9,0.45
				c0.42,0.1,0.23,0.39,0.05,0.58c-0.13,0.13-1.05,1.09-1.05,1.09l0.54,0.94c0.08-0.08,1.1-1.66,1.46-2.14
				C48.27,55.36,47.95,55.25,47.74,55.17z"/>
			<path id="XMLID_1_" class="st14" d="M48.46,53.15c-0.11-0.11-0.26-0.17-0.41-0.17c-0.15,0-0.29,0.06-0.41,0.17l-0.51,0.51
				l-0.93-0.93c-0.11-0.11-0.26-0.17-0.41-0.17c-0.15,0-0.29,0.06-0.41,0.17l-1.23,1.23c-0.06,0.06-0.06,0.16,0,0.23
				c0.06,0.06,0.16,0.06,0.23,0h0l1.23-1.23c0.05-0.05,0.11-0.07,0.18-0.07c0.07,0,0.13,0.02,0.18,0.07l1.35,1.35
				c0.06,0.06,0.16,0.06,0.23,0s0.06-0.16,0-0.23l-0.19-0.19l0.51-0.51c0.05-0.05,0.11-0.07,0.18-0.07c0.07,0,0.13,0.02,0.18,0.07
				l1.24,1.24l0.17-0.29L48.46,53.15z"/>
			<polygon class="st16" points="44.52,54.21 44.52,54.21 44.52,54.21 			"/>
		</g>
	</g>
	<g>
		<g>
			<g>
				<defs>
					<path id="SVGID_00000069374273221629021090000011760523980744888225_" d="M46.86,49.76c-1.69,0-3.12,1.33-3.12,2.95
						c0,0.58,0.24,1.15,0.55,1.65l2.21,3.84l0.04,0.05c0.16,0.21,0.49,0.21,0.65,0l0.04-0.05l2.21-3.84
						c0.31-0.5,0.55-1.06,0.55-1.65C49.98,51.09,48.54,49.76,46.86,49.76z"/>
				</defs>
				<clipPath id="SVGID_00000029726345207526080950000003269926475473314950_">
					<use xlink:href="#SVGID_00000069374273221629021090000011760523980744888225_"  style="overflow:visible;"/>
				</clipPath>
			</g>
		</g>
		<g>
			<path class="st14" d="M46.86,50.08c0.74,0,1.44,0.28,1.98,0.78c0.53,0.5,0.83,1.16,0.83,1.85c0,0.46-0.16,0.95-0.5,1.48l0,0l0,0
				l-2.22,3.84c-0.01,0.01-0.02,0.03-0.02,0.03v0c-0.02,0.02-0.05,0.02-0.06,0.02c-0.01,0-0.04,0-0.06-0.02c0,0-0.01-0.01-0.02-0.03
				l-2.22-3.84l0,0l0,0c-0.33-0.54-0.5-1.04-0.5-1.49c0-0.69,0.29-1.35,0.83-1.85C45.41,50.35,46.12,50.08,46.86,50.08 M46.86,49.76
				c-1.69,0-3.12,1.33-3.12,2.95c0,0.58,0.24,1.15,0.55,1.65l2.22,3.84c0.02,0.04,0.05,0.08,0.09,0.11c0.08,0.06,0.17,0.1,0.27,0.1
				c0.09,0,0.19-0.03,0.27-0.1c0.04-0.03,0.06-0.07,0.09-0.11l2.22-3.84c0.31-0.5,0.55-1.06,0.55-1.65
				C49.98,51.09,48.54,49.76,46.86,49.76z"/>
		</g>
	</g>
</g>
<path class="st13" d="M39.34,69.47c0,0.55-0.2,1.06-0.59,1.46c-0.35,0.35-0.87,0.59-1.46,0.59h-5.82c-0.55,0-1.06-0.24-1.46-0.59
	c-0.35-0.35-0.59-0.87-0.59-1.46v-5.82c0-0.55,0.2-1.06,0.59-1.46c0.35-0.35,0.87-0.59,1.46-0.59h5.82c0.59,0,1.1,0.24,1.46,0.63
	c0.35,0.35,0.59,0.87,0.59,1.46L39.34,69.47z"/>
<path class="st13" d="M39.34,57c0,0.55-0.2,1.06-0.59,1.46c-0.35,0.35-0.87,0.59-1.46,0.59h-5.82c-0.55,0-1.06-0.24-1.46-0.59
	c-0.35-0.35-0.59-0.87-0.59-1.46v-5.82c0-0.55,0.2-1.06,0.59-1.46c0.35-0.35,0.87-0.59,1.46-0.59h5.82l0,0
	c0.59,0,1.1,0.24,1.46,0.63c0.35,0.35,0.59,0.87,0.59,1.46L39.34,57z"/>
<path class="st13" d="M39.34,44.57c0,0.55-0.2,1.06-0.59,1.46c-0.35,0.35-0.87,0.59-1.46,0.59h-5.82c-0.55,0-1.06-0.24-1.46-0.59
	c-0.35-0.35-0.59-0.87-0.59-1.46v-5.82c0-0.55,0.2-1.06,0.59-1.46c0.35-0.35,0.87-0.59,1.46-0.59h5.82c0.59,0,1.1,0.24,1.46,0.59
	s0.59,0.87,0.59,1.46L39.34,44.57z"/>
<path class="st13" d="M51.81,69.47c0,0.55-0.2,1.06-0.59,1.46c-0.35,0.35-0.87,0.59-1.46,0.59h-5.82c-0.55,0-1.06-0.24-1.46-0.59
	c-0.35-0.35-0.59-0.87-0.59-1.46v-5.82c0-0.55,0.2-1.06,0.59-1.46c0.35-0.35,0.87-0.59,1.46-0.59h5.82c0.55,0,1.1,0.24,1.46,0.63
	c0.35,0.35,0.59,0.87,0.59,1.46L51.81,69.47z"/>
<path class="st13" d="M51.81,44.57c0,0.55-0.2,1.06-0.59,1.46c-0.35,0.35-0.87,0.59-1.46,0.59h-5.82c-0.55,0-1.06-0.24-1.46-0.59
	c-0.35-0.35-0.59-0.87-0.59-1.46v-5.82c0-0.55,0.2-1.06,0.59-1.46c0.35-0.35,0.87-0.59,1.46-0.59h5.82c0.55,0,1.1,0.24,1.46,0.59
	c0.35,0.35,0.59,0.87,0.59,1.46L51.81,44.57z"/>
<path class="st13" d="M64.28,69.47c0,0.55-0.24,1.06-0.59,1.46c-0.35,0.35-0.87,0.59-1.46,0.59h-5.82c-0.55,0-1.06-0.24-1.46-0.59
	c-0.35-0.35-0.59-0.87-0.59-1.46v-5.82c0-0.55,0.2-1.06,0.59-1.46c0.35-0.35,0.87-0.59,1.46-0.59h5.82c0.55,0,1.06,0.24,1.46,0.63
	c0.35,0.35,0.59,0.87,0.59,1.46L64.28,69.47z"/>
<path class="st13" d="M64.28,57c0,0.55-0.24,1.06-0.59,1.46c-0.35,0.35-0.87,0.59-1.46,0.59h-5.82c-0.55,0-1.06-0.24-1.46-0.59
	c-0.35-0.35-0.59-0.87-0.59-1.46v-5.82c0-0.55,0.2-1.06,0.59-1.46c0.35-0.35,0.87-0.59,1.46-0.59h5.82v0c0.55,0,1.06,0.24,1.46,0.63
	c0.35,0.35,0.59,0.87,0.59,1.46L64.28,57z"/>
<path class="st13" d="M64.28,44.57c0,0.55-0.24,1.06-0.59,1.46c-0.35,0.35-0.87,0.59-1.46,0.59h-5.82c-0.55,0-1.06-0.24-1.46-0.59
	c-0.35-0.35-0.59-0.87-0.59-1.46v-5.82c0-0.55,0.2-1.06,0.59-1.46c0.35-0.35,0.87-0.59,1.46-0.59h5.82c0.55,0,1.06,0.2,1.46,0.59
	c0.35,0.39,0.59,0.9,0.59,1.46L64.28,44.57z"/>
<path class="st13" d="M50.99,20.16h-8.26c-0.46,0-0.83-0.37-0.83-0.83c0-0.46,0.37-0.83,0.83-0.83h8.26c0.46,0,0.83,0.37,0.83,0.83
	C51.81,19.79,51.44,20.16,50.99,20.16z"/>
</svg>
