<?xml version="1.0" encoding="utf-8"?>
<!-- Generator: Adobe Illustrator 26.0.2, SVG Export Plug-In . SVG Version: 6.00 Build 0)  -->
<svg version="1.1" id="Layer_1" xmlns="http://www.w3.org/2000/svg" xmlns:xlink="http://www.w3.org/1999/xlink" x="0px" y="0px"
	 viewBox="0 0 100 100" style="enable-background:new 0 0 100 100;" xml:space="preserve">
<style type="text/css">
	.st0{fill:#0080FF;}
	.st1{fill:#4285F4;}
	.st2{fill:#34A853;}
	.st3{fill:#FBBC05;}
	.st4{fill:#EB4335;}
	.st5{fill-rule:evenodd;clip-rule:evenodd;fill:url(#SVGID_1_);}
	.st6{fill:url(#SVGID_00000130649408891050089210000011323123555519791279_);}
</style>
<g>
	<path d="M61.57,56.15c0-0.97-0.78-1.75-1.75-1.75h-2.81c-0.97,0-1.75,0.87-1.75,1.84c0,0.97,0.87,1.75,1.75,1.75h0.1h2.72
		C60.79,57.89,61.57,57.12,61.57,56.15L61.57,56.15z"/>
	<path d="M52.16,81.85h-2.72c-0.97,0-1.75,0.78-1.75,1.75c0,0.97,0.78,1.75,1.75,1.75h2.72c0.97,0,1.75-0.78,1.75-1.75
		C53.91,82.62,53.13,81.85,52.16,81.85z"/>
	<path d="M42.47,81.85h-2.72c-0.97,0-1.75,0.78-1.75,1.75c0,0.97,0.78,1.75,1.75,1.75h2.72c0.97,0,1.75-0.78,1.75-1.75
		C44.21,82.62,43.44,81.85,42.47,81.85z"/>
	<path d="M32.77,81.85h-2.72c-0.97,0-1.75,0.78-1.75,1.75c0,0.97,0.78,1.75,1.75,1.75h2.72c0.97,0,1.75-0.78,1.75-1.75
		C34.51,82.62,33.83,81.85,32.77,81.85z"/>
	<path d="M55.75,67.88c-0.68-0.19-1.26-0.58-1.75-0.97c-0.78-0.68-1.84-0.58-2.52,0.19c-0.68,0.78-0.58,1.84,0.19,2.52
		c0.87,0.78,1.94,1.36,3.01,1.65c0.19,0.1,0.29,0.1,0.48,0.1c0.78,0,1.45-0.49,1.75-1.26C57.21,69.14,56.72,68.17,55.75,67.88
		L55.75,67.88z"/>
	<path d="M50.22,63.91h0.29c0.87,0,1.65-0.68,1.75-1.55c0.1-0.68,0.29-1.36,0.68-1.94c0.49-0.87,0.19-1.94-0.58-2.42
		c-0.87-0.49-1.94-0.19-2.42,0.58c-0.58,0.97-0.97,2.13-1.16,3.3C48.57,62.84,49.25,63.71,50.22,63.91L50.22,63.91z"/>
	<path d="M69.42,80.2c-0.49,0.49-0.97,0.97-1.65,1.26c-0.87,0.39-1.26,1.55-0.87,2.42c0.29,0.68,0.97,0.97,1.65,0.97
		c0.29,0,0.49-0.1,0.78-0.19c1.07-0.49,1.94-1.26,2.72-2.13c0.68-0.78,0.58-1.84-0.19-2.52C71.17,79.32,70.01,79.42,69.42,80.2
		L69.42,80.2z"/>
	<path d="M72.33,71.37c-0.58-0.78-1.75-0.87-2.52-0.29c-0.78,0.58-0.87,1.75-0.29,2.52c0.39,0.49,0.78,1.16,0.97,1.75
		c0.19,0.78,0.97,1.26,1.75,1.26c0.19,0,0.29,0,0.49-0.1c0.97-0.29,1.45-1.26,1.26-2.23C73.59,73.31,73.01,72.25,72.33,71.37
		L72.33,71.37z"/>
	<path d="M71.27,56.15c0-0.97-0.78-1.75-1.75-1.75h-2.72c-0.97,0-1.75,0.78-1.75,1.75c0,0.97,0.78,1.75,1.75,1.75h2.62
		C70.39,57.89,71.27,57.12,71.27,56.15z"/>
	<path d="M64.77,68.08h-2.72c-0.97,0-1.75,0.78-1.75,1.75c0,0.97,0.78,1.75,1.75,1.75h2.72c0.97,0,1.75-0.78,1.75-1.75
		C66.51,68.85,65.84,68.08,64.77,68.08z"/>
	<path d="M61.76,81.85h-2.72c-0.97,0-1.75,0.78-1.75,1.75c0,0.97,0.78,1.75,1.75,1.75h2.72c0.97,0,1.75-0.78,1.75-1.75
		C63.51,82.62,62.73,81.85,61.76,81.85z"/>
	<path d="M30.05,45.77c-3.69-3.01-8.44-4.27-13.19-3.39c-6.3,1.16-11.35,6.21-12.61,12.41c-0.97,4.65,0.1,9.21,2.91,12.9
		c3.01,3.98,5.14,7.66,6.59,11.54c0.29,0.87,0.68,1.75,0.97,2.62c0.78,2.13,2.72,3.59,5.04,3.59s4.27-1.36,5.04-3.59
		c0.29-0.87,0.68-1.84,0.97-2.72c1.36-3.69,3.49-7.37,6.69-11.64c2.04-2.81,3.2-6.11,3.2-9.5C35.77,53.34,33.64,48.87,30.05,45.77
		L30.05,45.77z M29.76,65.46c-3.39,4.46-5.62,8.44-7.18,12.51c-0.39,0.97-0.68,1.84-0.97,2.81c-0.39,1.07-1.36,1.16-1.65,1.16
		s-1.26-0.1-1.65-1.16c-0.29-0.87-0.68-1.75-0.97-2.72c-1.55-4.17-3.88-8.24-7.18-12.51c-2.33-2.91-3.1-6.5-2.33-10.08
		c0.97-4.85,4.85-8.63,9.7-9.5c0.78-0.1,1.55-0.19,2.33-0.19c2.91,0,5.72,0.97,7.95,2.81c2.81,2.33,4.46,5.82,4.46,9.5
		C32.19,60.71,31.31,63.32,29.76,65.46L29.76,65.46z"/>
	<path d="M19.87,50.52c-4.17,0-7.47,3.39-7.47,7.47c0,4.17,3.39,7.47,7.47,7.47c4.07,0,7.47-3.39,7.47-7.47
		C27.34,53.92,24.04,50.52,19.87,50.52z M19.87,61.97c-2.13,0-3.88-1.75-3.88-3.88c0-2.13,1.75-3.88,3.88-3.88s3.88,1.75,3.88,3.88
		C23.75,60.22,22,61.97,19.87,61.97z"/>
	<path d="M90.37,18.23c-3.69-3.01-8.44-4.27-13.19-3.39c-6.3,1.16-11.35,6.11-12.51,12.41c-0.97,4.65,0.1,9.21,2.91,12.9
		c3.01,3.98,5.14,7.76,6.59,11.54c0.29,0.87,0.68,1.75,0.97,2.62c0.78,2.13,2.72,3.59,5.04,3.59s4.27-1.36,5.04-3.59
		c0.29-0.87,0.68-1.84,0.97-2.72c1.36-3.69,3.49-7.37,6.69-11.64c2.04-2.81,3.2-6.11,3.2-9.5C96.09,25.8,93.96,21.33,90.37,18.23
		L90.37,18.23z M90.08,37.92c-3.39,4.46-5.62,8.44-7.18,12.51c-0.39,0.97-0.68,1.84-0.97,2.81c-0.39,1.07-1.36,1.16-1.65,1.16
		s-1.26-0.1-1.65-1.16c-0.29-0.87-0.68-1.75-0.97-2.72c-1.55-4.17-3.88-8.24-7.18-12.51c-2.23-2.81-3.01-6.4-2.23-9.99
		c0.97-4.85,4.85-8.63,9.7-9.5c0.78-0.1,1.55-0.19,2.33-0.19c2.91,0,5.72,0.97,7.95,2.81c2.81,2.33,4.46,5.82,4.46,9.5
		C92.5,33.16,91.63,35.78,90.08,37.92L90.08,37.92z"/>
	<path d="M80.19,22.98c-4.17,0-7.47,3.39-7.47,7.47c0,4.17,3.39,7.47,7.47,7.47c4.17,0,7.47-3.39,7.47-7.47
		C87.65,26.38,84.36,22.98,80.19,22.98z M80.19,34.43c-2.13,0-3.88-1.75-3.88-3.88s1.75-3.88,3.88-3.88c2.13,0,3.88,1.75,3.88,3.88
		S82.32,34.43,80.19,34.43z"/>
</g>
</svg>
