<?xml version="1.0" encoding="utf-8"?>
<!-- Generator: Adobe Illustrator 26.0.2, SVG Export Plug-In . SVG Version: 6.00 Build 0)  -->
<svg version="1.1" id="Layer_1" xmlns="http://www.w3.org/2000/svg" xmlns:xlink="http://www.w3.org/1999/xlink" x="0px" y="0px"
	 viewBox="0 0 100 100" style="enable-background:new 0 0 100 100;" xml:space="preserve">
<style type="text/css">
	.st0{fill:#0080FF;}
	.st1{fill:#4285F4;}
	.st2{fill:#34A853;}
	.st3{fill:#FBBC05;}
	.st4{fill:#EB4335;}
</style>
<g>
	<path d="M51.48,44.97c-0.05,3.89,3.46,6.06,6.11,7.35c2.72,1.32,3.63,2.17,3.62,3.36c-0.02,1.81-2.17,2.61-4.18,2.64
		c-3.51,0.05-5.55-0.95-7.17-1.71l-1.26,5.92c1.63,0.75,4.64,1.4,7.77,1.43c7.33,0,12.13-3.62,12.16-9.23
		c0.03-7.12-9.85-7.52-9.79-10.7c0.02-0.97,0.94-2,2.96-2.26c1-0.13,3.76-0.23,6.89,1.21l1.23-5.72c-1.68-0.61-3.84-1.2-6.54-1.2
		C56.38,36.04,51.52,39.71,51.48,44.97 M81.62,36.54c-1.34,0-2.47,0.78-2.97,1.98L68.17,63.54h7.33l1.46-4.03h8.96l0.85,4.03h6.46
		l-5.64-27H81.62 M82.64,43.83l2.12,10.14h-5.79L82.64,43.83 M42.6,36.54l-5.78,27h6.98l5.77-27H42.6 M32.27,36.54L25,54.91
		l-2.94-15.62c-0.35-1.74-1.71-2.75-3.22-2.75H6.95l-0.17,0.78c2.44,0.53,5.21,1.38,6.89,2.3c1.03,0.56,1.32,1.05,1.66,2.37
		l5.57,21.54h7.38l11.32-27H32.27"/>
</g>
</svg>
