<svg id="Layer_1" data-name="Layer 1" xmlns="http://www.w3.org/2000/svg" viewBox="0 0 100 100"><path d="M68.27,13.93a1.9,1.9,0,1,1,0-3.8H78.48A11.4,11.4,0,0,1,89.87,21.52v10a1.9,1.9,0,1,1-3.79,0v-10a7.63,7.63,0,0,0-7.6-7.59Zm17.8,54.73a1.9,1.9,0,0,1,3.8,0v9.82A11.4,11.4,0,0,1,78.48,89.87H68.2a1.9,1.9,0,1,1,0-3.79H78.48a7.63,7.63,0,0,0,7.59-7.6ZM31.32,86.08a1.9,1.9,0,1,1,0,3.79h-9.8A11.4,11.4,0,0,1,10.13,78.48V68.66a1.9,1.9,0,1,1,3.79,0v9.82a7.65,7.65,0,0,0,7.6,7.6ZM13.92,31.36a1.9,1.9,0,1,1-3.79,0V21.52A11.4,11.4,0,0,1,21.52,10.13H31.61a1.9,1.9,0,1,1,0,3.79H21.52a7.65,7.65,0,0,0-7.6,7.6Zm19.7,2.44a1.75,1.75,0,0,1,1.75,1.75v5.57a1.75,1.75,0,0,1-3.5,0V35.55A1.76,1.76,0,0,1,33.62,33.8Zm15.79,2.12a1.89,1.89,0,1,1,3.78,0l-.11,15.61a9.17,9.17,0,0,1-.77,4.1c-.82,1.64-2.34,2.9-5.17,2.82a1.9,1.9,0,0,1,.09-3.79c1,0,1.49-.29,1.7-.72a6.19,6.19,0,0,0,.37-2.43l.11-15.6Zm-14,30.33a1.88,1.88,0,0,1,.41-2.64,1.9,1.9,0,0,1,2.65.4,7.71,7.71,0,0,0,1.26,1.36,15,15,0,0,0,9.5,3.07,17.25,17.25,0,0,0,10.23-3,10.87,10.87,0,0,0,1.83-1.68,1.89,1.89,0,0,1,2.88,2.46,14.76,14.76,0,0,1-2.47,2.27,21.07,21.07,0,0,1-12.52,3.69c-4.5-.06-8.91-1.4-11.91-4a11.71,11.71,0,0,1-1.86-2ZM66.11,33.8a1.75,1.75,0,0,1,1.75,1.75v5.57a1.75,1.75,0,0,1-3.5,0V35.55A1.76,1.76,0,0,1,66.11,33.8Z"/></svg>