<svg id="Layer_1" data-name="Layer 1" xmlns="http://www.w3.org/2000/svg" viewBox="0 0 100 100"><defs><style>.cls-1{fill:#4285f4;}.cls-2{fill:#34a853;}.cls-3{fill:#fbbc05;}.cls-4{fill:#eb4335;}</style></defs><path class="cls-1" d="M87.18,50.84a32.34,32.34,0,0,0-.8-7.75H50.76V57.17H71.67a18.56,18.56,0,0,1-7.76,12.31l-.07.47L75.1,78.67l.78.08c7.17-6.62,11.3-16.36,11.3-27.91"/><path class="cls-2" d="M50.76,87.94c10.24,0,18.84-3.37,25.12-9.19l-12-9.27a22.47,22.47,0,0,1-13.15,3.79A22.83,22.83,0,0,1,29.18,57.5l-.45,0L17,66.6l-.15.43A37.91,37.91,0,0,0,50.76,87.94"/><path class="cls-3" d="M29.18,57.5A23.11,23.11,0,0,1,27.91,50a24.5,24.5,0,0,1,1.22-7.5l0-.51L17.25,32.78l-.38.19a37.83,37.83,0,0,0,0,34.06L29.18,57.5"/><path class="cls-4" d="M50.76,26.73a21,21,0,0,1,14.67,5.65L76.14,21.92a36.48,36.48,0,0,0-25.38-9.86A37.91,37.91,0,0,0,16.87,33L29.13,42.5A22.94,22.94,0,0,1,50.76,26.73"/></svg>